<mxfile host="app.diagrams.net" agent="Mozilla/5.0 (Windows NT 10.0; Win64; x64) AppleWebKit/537.36 (KHTML, like Gecko) Chrome/134.0.0.0 Safari/537.36 OPR/119.0.0.0" version="28.2.0">
  <diagram name="Página-1" id="v9hj_F2Pf64KZiWr7OxV">
    <mxGraphModel dx="1506" dy="621" grid="1" gridSize="10" guides="1" tooltips="1" connect="1" arrows="1" fold="1" page="1" pageScale="1" pageWidth="827" pageHeight="1169" math="0" shadow="0">
      <root>
        <mxCell id="0" />
        <mxCell id="1" parent="0" />
        <mxCell id="BL9E6-mRbqVSJRH6Qvqm-3" value="" style="edgeStyle=orthogonalEdgeStyle;rounded=0;orthogonalLoop=1;jettySize=auto;html=1;" edge="1" parent="1" source="BL9E6-mRbqVSJRH6Qvqm-1" target="BL9E6-mRbqVSJRH6Qvqm-2">
          <mxGeometry relative="1" as="geometry" />
        </mxCell>
        <mxCell id="BL9E6-mRbqVSJRH6Qvqm-1" value="" style="ellipse;whiteSpace=wrap;html=1;" vertex="1" parent="1">
          <mxGeometry x="180" y="130" width="120" height="40" as="geometry" />
        </mxCell>
        <mxCell id="BL9E6-mRbqVSJRH6Qvqm-5" value="" style="edgeStyle=orthogonalEdgeStyle;rounded=0;orthogonalLoop=1;jettySize=auto;html=1;" edge="1" parent="1" source="BL9E6-mRbqVSJRH6Qvqm-2" target="BL9E6-mRbqVSJRH6Qvqm-4">
          <mxGeometry relative="1" as="geometry" />
        </mxCell>
        <mxCell id="BL9E6-mRbqVSJRH6Qvqm-38" value="SI" style="edgeLabel;html=1;align=center;verticalAlign=middle;resizable=0;points=[];" vertex="1" connectable="0" parent="BL9E6-mRbqVSJRH6Qvqm-5">
          <mxGeometry x="0.6261" y="2" relative="1" as="geometry">
            <mxPoint x="-2" y="189" as="offset" />
          </mxGeometry>
        </mxCell>
        <mxCell id="BL9E6-mRbqVSJRH6Qvqm-2" value="ClaveNegocio&lt;div&gt;ClaveInterna&lt;/div&gt;&lt;div&gt;ClaveCuadroBásico&lt;/div&gt;" style="shape=parallelogram;perimeter=parallelogramPerimeter;whiteSpace=wrap;html=1;fixedSize=1;" vertex="1" parent="1">
          <mxGeometry x="150" y="190" width="180" height="60" as="geometry" />
        </mxCell>
        <mxCell id="BL9E6-mRbqVSJRH6Qvqm-7" value="" style="edgeStyle=orthogonalEdgeStyle;rounded=0;orthogonalLoop=1;jettySize=auto;html=1;" edge="1" parent="1" source="BL9E6-mRbqVSJRH6Qvqm-37" target="BL9E6-mRbqVSJRH6Qvqm-6">
          <mxGeometry relative="1" as="geometry" />
        </mxCell>
        <mxCell id="BL9E6-mRbqVSJRH6Qvqm-4" value="verificar equivalencia con cuadro básico" style="rounded=0;whiteSpace=wrap;html=1;" vertex="1" parent="1">
          <mxGeometry x="180" y="280" width="120" height="60" as="geometry" />
        </mxCell>
        <mxCell id="BL9E6-mRbqVSJRH6Qvqm-9" value="" style="edgeStyle=orthogonalEdgeStyle;rounded=0;orthogonalLoop=1;jettySize=auto;html=1;" edge="1" parent="1" source="BL9E6-mRbqVSJRH6Qvqm-6" target="BL9E6-mRbqVSJRH6Qvqm-8">
          <mxGeometry relative="1" as="geometry" />
        </mxCell>
        <mxCell id="BL9E6-mRbqVSJRH6Qvqm-10" value="NO" style="edgeLabel;html=1;align=center;verticalAlign=middle;resizable=0;points=[];" vertex="1" connectable="0" parent="BL9E6-mRbqVSJRH6Qvqm-9">
          <mxGeometry x="-0.4733" relative="1" as="geometry">
            <mxPoint as="offset" />
          </mxGeometry>
        </mxCell>
        <mxCell id="BL9E6-mRbqVSJRH6Qvqm-12" value="" style="edgeStyle=orthogonalEdgeStyle;rounded=0;orthogonalLoop=1;jettySize=auto;html=1;" edge="1" parent="1" source="BL9E6-mRbqVSJRH6Qvqm-6" target="BL9E6-mRbqVSJRH6Qvqm-11">
          <mxGeometry relative="1" as="geometry" />
        </mxCell>
        <mxCell id="BL9E6-mRbqVSJRH6Qvqm-13" value="Si" style="edgeLabel;html=1;align=center;verticalAlign=middle;resizable=0;points=[];" vertex="1" connectable="0" parent="BL9E6-mRbqVSJRH6Qvqm-12">
          <mxGeometry x="-0.29" y="-1" relative="1" as="geometry">
            <mxPoint as="offset" />
          </mxGeometry>
        </mxCell>
        <mxCell id="BL9E6-mRbqVSJRH6Qvqm-6" value="¿Hay cuadro básico?" style="rhombus;whiteSpace=wrap;html=1;rounded=0;" vertex="1" parent="1">
          <mxGeometry x="200" y="470" width="80" height="80" as="geometry" />
        </mxCell>
        <mxCell id="BL9E6-mRbqVSJRH6Qvqm-17" style="edgeStyle=orthogonalEdgeStyle;rounded=0;orthogonalLoop=1;jettySize=auto;html=1;exitX=0.5;exitY=1;exitDx=0;exitDy=0;entryX=0.5;entryY=0;entryDx=0;entryDy=0;" edge="1" parent="1" source="BL9E6-mRbqVSJRH6Qvqm-8" target="BL9E6-mRbqVSJRH6Qvqm-16">
          <mxGeometry relative="1" as="geometry">
            <Array as="points">
              <mxPoint x="430" y="540" />
            </Array>
          </mxGeometry>
        </mxCell>
        <mxCell id="BL9E6-mRbqVSJRH6Qvqm-8" value="usar clave negocio como cuadro básico" style="whiteSpace=wrap;html=1;rounded=0;" vertex="1" parent="1">
          <mxGeometry x="340" y="480" width="120" height="60" as="geometry" />
        </mxCell>
        <mxCell id="BL9E6-mRbqVSJRH6Qvqm-18" style="edgeStyle=orthogonalEdgeStyle;rounded=0;orthogonalLoop=1;jettySize=auto;html=1;exitX=0.5;exitY=1;exitDx=0;exitDy=0;entryX=0;entryY=0.5;entryDx=0;entryDy=0;" edge="1" parent="1" source="BL9E6-mRbqVSJRH6Qvqm-11" target="BL9E6-mRbqVSJRH6Qvqm-16">
          <mxGeometry relative="1" as="geometry" />
        </mxCell>
        <mxCell id="BL9E6-mRbqVSJRH6Qvqm-11" value="usar clave cuadro básico" style="whiteSpace=wrap;html=1;rounded=0;" vertex="1" parent="1">
          <mxGeometry x="180" y="590" width="120" height="60" as="geometry" />
        </mxCell>
        <mxCell id="BL9E6-mRbqVSJRH6Qvqm-15" value="propuesta de Ernesto" style="text;html=1;align=center;verticalAlign=middle;resizable=0;points=[];autosize=1;strokeColor=none;fillColor=none;" vertex="1" parent="1">
          <mxGeometry x="280" y="160" width="140" height="30" as="geometry" />
        </mxCell>
        <mxCell id="BL9E6-mRbqVSJRH6Qvqm-16" value="realizar movimientos en sistema con clave cuadro básico." style="rounded=0;whiteSpace=wrap;html=1;" vertex="1" parent="1">
          <mxGeometry x="370" y="640" width="120" height="60" as="geometry" />
        </mxCell>
        <mxCell id="BL9E6-mRbqVSJRH6Qvqm-19" value="" style="edgeStyle=orthogonalEdgeStyle;rounded=0;orthogonalLoop=1;jettySize=auto;html=1;" edge="1" parent="1" source="BL9E6-mRbqVSJRH6Qvqm-20" target="BL9E6-mRbqVSJRH6Qvqm-22">
          <mxGeometry relative="1" as="geometry" />
        </mxCell>
        <mxCell id="BL9E6-mRbqVSJRH6Qvqm-20" value="" style="ellipse;whiteSpace=wrap;html=1;" vertex="1" parent="1">
          <mxGeometry x="750" y="120" width="120" height="40" as="geometry" />
        </mxCell>
        <mxCell id="BL9E6-mRbqVSJRH6Qvqm-21" value="" style="edgeStyle=orthogonalEdgeStyle;rounded=0;orthogonalLoop=1;jettySize=auto;html=1;" edge="1" parent="1" source="BL9E6-mRbqVSJRH6Qvqm-22" target="BL9E6-mRbqVSJRH6Qvqm-24">
          <mxGeometry relative="1" as="geometry" />
        </mxCell>
        <mxCell id="BL9E6-mRbqVSJRH6Qvqm-46" value="SI" style="edgeLabel;html=1;align=center;verticalAlign=middle;resizable=0;points=[];" vertex="1" connectable="0" parent="BL9E6-mRbqVSJRH6Qvqm-21">
          <mxGeometry x="0.6986" y="2" relative="1" as="geometry">
            <mxPoint x="-2" y="167" as="offset" />
          </mxGeometry>
        </mxCell>
        <mxCell id="BL9E6-mRbqVSJRH6Qvqm-22" value="ClaveNegocio&lt;div&gt;ClaveInterna&lt;/div&gt;&lt;div&gt;ClaveCuadroBásico&lt;/div&gt;" style="shape=parallelogram;perimeter=parallelogramPerimeter;whiteSpace=wrap;html=1;fixedSize=1;" vertex="1" parent="1">
          <mxGeometry x="720" y="190" width="180" height="60" as="geometry" />
        </mxCell>
        <mxCell id="BL9E6-mRbqVSJRH6Qvqm-23" value="" style="edgeStyle=orthogonalEdgeStyle;rounded=0;orthogonalLoop=1;jettySize=auto;html=1;entryX=0.5;entryY=0;entryDx=0;entryDy=0;" edge="1" parent="1" source="BL9E6-mRbqVSJRH6Qvqm-24" target="BL9E6-mRbqVSJRH6Qvqm-33">
          <mxGeometry relative="1" as="geometry">
            <mxPoint x="810" y="480" as="targetPoint" />
          </mxGeometry>
        </mxCell>
        <mxCell id="BL9E6-mRbqVSJRH6Qvqm-24" value="verificar equivalencia" style="rounded=0;whiteSpace=wrap;html=1;" vertex="1" parent="1">
          <mxGeometry x="750" y="280" width="120" height="60" as="geometry" />
        </mxCell>
        <mxCell id="BL9E6-mRbqVSJRH6Qvqm-52" value="" style="edgeStyle=orthogonalEdgeStyle;rounded=0;orthogonalLoop=1;jettySize=auto;html=1;" edge="1" parent="1" source="BL9E6-mRbqVSJRH6Qvqm-33" target="BL9E6-mRbqVSJRH6Qvqm-35">
          <mxGeometry relative="1" as="geometry" />
        </mxCell>
        <mxCell id="BL9E6-mRbqVSJRH6Qvqm-33" value="usar clave negocio" style="whiteSpace=wrap;html=1;rounded=0;" vertex="1" parent="1">
          <mxGeometry x="750" y="470" width="120" height="60" as="geometry" />
        </mxCell>
        <mxCell id="BL9E6-mRbqVSJRH6Qvqm-34" value="propuesta de Ismael" style="text;html=1;align=center;verticalAlign=middle;resizable=0;points=[];autosize=1;strokeColor=none;fillColor=none;" vertex="1" parent="1">
          <mxGeometry x="840" y="160" width="130" height="30" as="geometry" />
        </mxCell>
        <mxCell id="BL9E6-mRbqVSJRH6Qvqm-35" value="realizar movimientos en sistema con clave negocio" style="rounded=0;whiteSpace=wrap;html=1;" vertex="1" parent="1">
          <mxGeometry x="750" y="555" width="120" height="60" as="geometry" />
        </mxCell>
        <mxCell id="BL9E6-mRbqVSJRH6Qvqm-39" value="Ingresar clave" style="shape=document;whiteSpace=wrap;html=1;boundedLbl=1;" vertex="1" parent="1">
          <mxGeometry x="20" y="360" width="120" height="80" as="geometry" />
        </mxCell>
        <mxCell id="BL9E6-mRbqVSJRH6Qvqm-41" style="edgeStyle=orthogonalEdgeStyle;rounded=0;orthogonalLoop=1;jettySize=auto;html=1;exitX=1;exitY=0.5;exitDx=0;exitDy=0;entryX=0;entryY=0.25;entryDx=0;entryDy=0;" edge="1" parent="1" source="BL9E6-mRbqVSJRH6Qvqm-45" target="BL9E6-mRbqVSJRH6Qvqm-43">
          <mxGeometry relative="1" as="geometry" />
        </mxCell>
        <mxCell id="BL9E6-mRbqVSJRH6Qvqm-51" style="edgeStyle=orthogonalEdgeStyle;rounded=0;orthogonalLoop=1;jettySize=auto;html=1;exitX=1;exitY=0.5;exitDx=0;exitDy=0;entryX=0;entryY=0.25;entryDx=0;entryDy=0;" edge="1" parent="1" source="BL9E6-mRbqVSJRH6Qvqm-42" target="BL9E6-mRbqVSJRH6Qvqm-43">
          <mxGeometry relative="1" as="geometry" />
        </mxCell>
        <mxCell id="BL9E6-mRbqVSJRH6Qvqm-42" value="¿Está en catálogo equivalencia?" style="rhombus;whiteSpace=wrap;html=1;" vertex="1" parent="1">
          <mxGeometry x="770" y="350" width="80" height="80" as="geometry" />
        </mxCell>
        <mxCell id="BL9E6-mRbqVSJRH6Qvqm-43" value="Ingresar clave al catálogo" style="shape=document;whiteSpace=wrap;html=1;boundedLbl=1;" vertex="1" parent="1">
          <mxGeometry x="920" y="370" width="120" height="80" as="geometry" />
        </mxCell>
        <mxCell id="BL9E6-mRbqVSJRH6Qvqm-47" value="LayOut" style="text;html=1;align=center;verticalAlign=middle;resizable=0;points=[];autosize=1;strokeColor=none;fillColor=none;" vertex="1" parent="1">
          <mxGeometry x="690" y="160" width="60" height="30" as="geometry" />
        </mxCell>
        <mxCell id="BL9E6-mRbqVSJRH6Qvqm-48" value="LayOut" style="text;html=1;align=center;verticalAlign=middle;resizable=0;points=[];autosize=1;strokeColor=none;fillColor=none;" vertex="1" parent="1">
          <mxGeometry x="110" y="200" width="60" height="30" as="geometry" />
        </mxCell>
        <mxCell id="BL9E6-mRbqVSJRH6Qvqm-45" value="NO" style="text;html=1;align=center;verticalAlign=middle;resizable=0;points=[];autosize=1;strokeColor=none;fillColor=none;" vertex="1" parent="1">
          <mxGeometry x="860" y="375" width="40" height="30" as="geometry" />
        </mxCell>
        <mxCell id="BL9E6-mRbqVSJRH6Qvqm-50" value="" style="edgeStyle=orthogonalEdgeStyle;rounded=0;orthogonalLoop=1;jettySize=auto;html=1;" edge="1" parent="1" source="BL9E6-mRbqVSJRH6Qvqm-4" target="BL9E6-mRbqVSJRH6Qvqm-37">
          <mxGeometry relative="1" as="geometry">
            <mxPoint x="240" y="330" as="sourcePoint" />
            <mxPoint x="240" y="470" as="targetPoint" />
          </mxGeometry>
        </mxCell>
        <mxCell id="BL9E6-mRbqVSJRH6Qvqm-53" value="" style="edgeStyle=orthogonalEdgeStyle;rounded=0;orthogonalLoop=1;jettySize=auto;html=1;" edge="1" parent="1" source="BL9E6-mRbqVSJRH6Qvqm-37" target="BL9E6-mRbqVSJRH6Qvqm-39">
          <mxGeometry relative="1" as="geometry" />
        </mxCell>
        <mxCell id="BL9E6-mRbqVSJRH6Qvqm-54" value="NO" style="edgeLabel;html=1;align=center;verticalAlign=middle;resizable=0;points=[];" vertex="1" connectable="0" parent="BL9E6-mRbqVSJRH6Qvqm-53">
          <mxGeometry x="-0.2304" y="-1" relative="1" as="geometry">
            <mxPoint as="offset" />
          </mxGeometry>
        </mxCell>
        <mxCell id="BL9E6-mRbqVSJRH6Qvqm-37" value="¿Está en catálogo?" style="rhombus;whiteSpace=wrap;html=1;" vertex="1" parent="1">
          <mxGeometry x="200" y="360" width="80" height="80" as="geometry" />
        </mxCell>
        <mxCell id="BL9E6-mRbqVSJRH6Qvqm-55" value="" style="shape=cylinder3;whiteSpace=wrap;html=1;boundedLbl=1;backgroundOutline=1;size=15;" vertex="1" parent="1">
          <mxGeometry x="190" y="830" width="140" height="160" as="geometry" />
        </mxCell>
        <mxCell id="BL9E6-mRbqVSJRH6Qvqm-56" value="" style="ellipse;whiteSpace=wrap;html=1;aspect=fixed;" vertex="1" parent="1">
          <mxGeometry y="890" width="80" height="80" as="geometry" />
        </mxCell>
        <mxCell id="BL9E6-mRbqVSJRH6Qvqm-57" value="" style="shape=cylinder3;whiteSpace=wrap;html=1;boundedLbl=1;backgroundOutline=1;size=15;" vertex="1" parent="1">
          <mxGeometry x="190" y="880" width="60" height="80" as="geometry" />
        </mxCell>
        <mxCell id="BL9E6-mRbqVSJRH6Qvqm-58" value="" style="shape=cylinder3;whiteSpace=wrap;html=1;boundedLbl=1;backgroundOutline=1;size=15;" vertex="1" parent="1">
          <mxGeometry x="270" y="880" width="60" height="80" as="geometry" />
        </mxCell>
        <mxCell id="BL9E6-mRbqVSJRH6Qvqm-59" value="EMPRESA MEDICAMENTA" style="text;html=1;align=center;verticalAlign=middle;resizable=0;points=[];autosize=1;strokeColor=none;fillColor=none;" vertex="1" parent="1">
          <mxGeometry x="175" y="800" width="170" height="30" as="geometry" />
        </mxCell>
        <mxCell id="BL9E6-mRbqVSJRH6Qvqm-60" value="" style="shape=cylinder3;whiteSpace=wrap;html=1;boundedLbl=1;backgroundOutline=1;size=15;" vertex="1" parent="1">
          <mxGeometry x="205" y="910" width="30" height="50" as="geometry" />
        </mxCell>
        <mxCell id="BL9E6-mRbqVSJRH6Qvqm-61" value="" style="shape=cylinder3;whiteSpace=wrap;html=1;boundedLbl=1;backgroundOutline=1;size=15;" vertex="1" parent="1">
          <mxGeometry x="285" y="910" width="30" height="50" as="geometry" />
        </mxCell>
        <mxCell id="BL9E6-mRbqVSJRH6Qvqm-64" value="" style="edgeStyle=orthogonalEdgeStyle;rounded=0;orthogonalLoop=1;jettySize=auto;html=1;" edge="1" parent="1" source="BL9E6-mRbqVSJRH6Qvqm-62" target="BL9E6-mRbqVSJRH6Qvqm-63">
          <mxGeometry relative="1" as="geometry" />
        </mxCell>
        <mxCell id="BL9E6-mRbqVSJRH6Qvqm-62" value="" style="ellipse;whiteSpace=wrap;html=1;" vertex="1" parent="1">
          <mxGeometry x="1170" y="100" width="120" height="50" as="geometry" />
        </mxCell>
        <mxCell id="BL9E6-mRbqVSJRH6Qvqm-66" value="" style="edgeStyle=orthogonalEdgeStyle;rounded=0;orthogonalLoop=1;jettySize=auto;html=1;" edge="1" parent="1" source="BL9E6-mRbqVSJRH6Qvqm-63" target="BL9E6-mRbqVSJRH6Qvqm-65">
          <mxGeometry relative="1" as="geometry" />
        </mxCell>
        <mxCell id="BL9E6-mRbqVSJRH6Qvqm-63" value="Layout inventario Inicial" style="shape=parallelogram;perimeter=parallelogramPerimeter;whiteSpace=wrap;html=1;fixedSize=1;" vertex="1" parent="1">
          <mxGeometry x="1170" y="180" width="120" height="60" as="geometry" />
        </mxCell>
        <mxCell id="BL9E6-mRbqVSJRH6Qvqm-68" value="" style="edgeStyle=orthogonalEdgeStyle;rounded=0;orthogonalLoop=1;jettySize=auto;html=1;" edge="1" parent="1" source="BL9E6-mRbqVSJRH6Qvqm-65" target="BL9E6-mRbqVSJRH6Qvqm-67">
          <mxGeometry relative="1" as="geometry" />
        </mxCell>
        <mxCell id="BL9E6-mRbqVSJRH6Qvqm-72" value="NO" style="edgeLabel;html=1;align=center;verticalAlign=middle;resizable=0;points=[];" vertex="1" connectable="0" parent="BL9E6-mRbqVSJRH6Qvqm-68">
          <mxGeometry x="-0.4622" y="-3" relative="1" as="geometry">
            <mxPoint as="offset" />
          </mxGeometry>
        </mxCell>
        <mxCell id="BL9E6-mRbqVSJRH6Qvqm-71" value="" style="edgeStyle=orthogonalEdgeStyle;rounded=0;orthogonalLoop=1;jettySize=auto;html=1;" edge="1" parent="1" source="BL9E6-mRbqVSJRH6Qvqm-65" target="BL9E6-mRbqVSJRH6Qvqm-70">
          <mxGeometry relative="1" as="geometry" />
        </mxCell>
        <mxCell id="BL9E6-mRbqVSJRH6Qvqm-73" value="SI" style="edgeLabel;html=1;align=center;verticalAlign=middle;resizable=0;points=[];" vertex="1" connectable="0" parent="BL9E6-mRbqVSJRH6Qvqm-71">
          <mxGeometry x="-0.3382" y="-1" relative="1" as="geometry">
            <mxPoint as="offset" />
          </mxGeometry>
        </mxCell>
        <mxCell id="BL9E6-mRbqVSJRH6Qvqm-65" value="¿Existe clave(3 posibilidades)?" style="rhombus;whiteSpace=wrap;html=1;" vertex="1" parent="1">
          <mxGeometry x="1190" y="270" width="80" height="80" as="geometry" />
        </mxCell>
        <mxCell id="BL9E6-mRbqVSJRH6Qvqm-67" value="No existe clave" style="shape=document;whiteSpace=wrap;html=1;boundedLbl=1;" vertex="1" parent="1">
          <mxGeometry x="1340" y="270" width="120" height="80" as="geometry" />
        </mxCell>
        <mxCell id="BL9E6-mRbqVSJRH6Qvqm-69" value="NO debería haber SB" style="text;html=1;align=center;verticalAlign=middle;resizable=0;points=[];autosize=1;strokeColor=none;fillColor=none;" vertex="1" parent="1">
          <mxGeometry x="1290" y="188" width="140" height="30" as="geometry" />
        </mxCell>
        <mxCell id="BL9E6-mRbqVSJRH6Qvqm-70" value="usar Clave negocio (tb_medica y tb_descricpciones)" style="whiteSpace=wrap;html=1;" vertex="1" parent="1">
          <mxGeometry x="1170" y="390" width="120" height="60" as="geometry" />
        </mxCell>
      </root>
    </mxGraphModel>
  </diagram>
</mxfile>
